<?xml version="1.0" encoding="UTF-8" standalone="no"?>
<!-- Created with Inkscape (http://www.inkscape.org/) -->

<svg
   width="86.75367mm"
   height="90.202347mm"
   viewBox="0 0 86.75367 90.202347"
   version="1.1"
   id="svg5"
   xml:space="preserve"
   inkscape:version="1.2 (dc2aedaf03, 2022-05-15)"
   sodipodi:docname="odin.svg"
   xmlns:inkscape="http://www.inkscape.org/namespaces/inkscape"
   xmlns:sodipodi="http://sodipodi.sourceforge.net/DTD/sodipodi-0.dtd"
   xmlns="http://www.w3.org/2000/svg"
   xmlns:svg="http://www.w3.org/2000/svg"><sodipodi:namedview
     id="namedview7"
     pagecolor="#505050"
     bordercolor="#ffffff"
     borderopacity="1"
     inkscape:showpageshadow="0"
     inkscape:pageopacity="0"
     inkscape:pagecheckerboard="1"
     inkscape:deskcolor="#505050"
     inkscape:document-units="mm"
     showgrid="false"
     showborder="false"
     inkscape:zoom="0.914906"
     inkscape:cx="286.36822"
     inkscape:cy="288.55423"
     inkscape:window-width="2560"
     inkscape:window-height="1364"
     inkscape:window-x="2560"
     inkscape:window-y="48"
     inkscape:window-maximized="1"
     inkscape:current-layer="layer1" /><defs
     id="defs2" /><g
     inkscape:label="Ebene 1"
     inkscape:groupmode="layer"
     id="layer1"
     transform="translate(29.70114,-72.101803)"><path
       style="fill:#000000;stroke-width:0.264583"
       d="m 12.898849,161.05766 c -0.45394,-0.68557 -1.183229,-1.77643 -1.620659,-2.42413 -0.43743,-0.64771 -0.79533,-1.45138 -0.79533,-1.78594 0,-0.33456 -0.0298,-0.6078 -0.0661,-0.60719 -0.0364,5.3e-4 -0.6518697,0.29827 -1.3677594,0.66146 -1.8633302,0.94533 -3.7677902,0.90053 -5.8132706,-0.13675 -1.31822,-0.66848 -1.86445,-0.7904 -3.54117991,-0.7904 -2.51319109,0 -3.75252609,-0.37464 -5.12464909,-1.54912 -1.225413,-1.04891 -2.336755,-3.17133 -2.340658,-4.47015 -0.0019,-0.65135 -0.118322,-0.8599 -0.479803,-0.8599 -0.944757,0 -3.169271,-1.34353 -3.847648,-2.32386 -2.005012,-2.89745 -1.943254,-7.09218 0.139338,-9.46412 l 0.818841,-0.93261 -0.534666,-0.58501 c -1.644702,-1.79959 -2.014534,-4.94183 -0.938599,-7.97472 0.523741,-1.47633 0.530734,-1.60831 0.11857,-2.23792 -0.335876,-0.51308 -0.436018,-1.28851 -0.429521,-3.32594 0.0076,-2.37099 0.08638,-2.80642 0.732519,-4.04683 l 0.724048,-1.38996 -0.534082,-1.04689 c -0.997364,-1.955 -0.616124,-5.7177 0.770699,-7.60654 0.481712,-0.65608 0.550035,-1.19486 0.619046,-4.88166 l 0.07757,-4.144186 -0.725034,-0.42828 c -0.398768,-0.23556 -1.116974,-1.06417 -1.596013,-1.84136 -0.656572,-1.06522 -1.218111,-1.59491 -2.281113,-2.15173 -1.857842,-0.97317 -3.113136,-2.624755 -3.503663,-4.60976 -0.29043,-1.476226 -0.34978,-1.554471 -2.004089,-2.642116 -2.349682,-1.544828 -3.524128,-3.572131 -3.533718,-6.099828 -0.003,-0.79826 -0.146334,-1.007588 -1.038537,-1.517012 -1.226959,-0.70056 -2.612669,-2.33911 -3.527834,-4.17153 -0.668702,-1.338932 -1.196377,-3.571875 -0.844082,-3.571875 0.105461,0 1.693504,0.463422 3.528985,1.029826 3.132018,0.966499 8.177325,2.488107 16.82448,5.074076 2.033712,0.60819 3.998243,1.292081 4.365625,1.519757 1.602798,0.993297 3.0429301,2.352628 3.88181812,3.66402 0.49689997,0.776777 0.97153994,1.412321 1.05475994,1.412321 0.0832,0 0.72259997,-0.321133 1.42082994,-0.713629 0.99141,-0.557296 1.33439,-0.930141 1.56563,-1.701949 0.5786104,-1.931241 3.3712504,-3.731494 6.99353,-4.508336 2.19727,-0.47123 7.66899,-0.140096 9.5639,0.578781 2.76716,1.049788 4.894789,2.927783 4.894789,4.32049 0,0.362988 2.41672,2.014709 2.95873,2.02216 0.0993,0.0014 0.25709,-0.238502 0.35058,-0.533039 0.26005,-0.819352 2.98541,-3.643112 4.20726,-4.359162 0.59791,-0.3504 6.20574,-2.172238 12.46184,-4.048528 6.25609,-1.87629 11.66067,-3.502899 12.01018,-3.614687 0.62262,-0.199141 0.63209,-0.178637 0.46855,1.014543 -0.25765,1.879782 -1.54199,4.14226 -3.22419,5.679696 -0.82189,0.751159 -1.59335,1.365743 -1.71435,1.365743 -0.121,0 -0.29445,0.506016 -0.38543,1.12448 -0.48597,3.303357 -1.50589,4.909346 -4.01827,6.327244 -1.1327,0.639258 -1.41907,0.936412 -1.41907,1.472524 0,2.115595 -1.51745,4.34206 -3.86064,5.66447 -0.77391,0.43677 -1.48839,1.05022 -1.58774,1.36322 -0.0993,0.313 -0.80234,1.17608 -1.56221,1.91796 l -1.3816,1.34886 0.24561,1.701556 c 0.13509,0.93585 0.17255,2.67279 0.0832,3.85986 -0.1581,2.10165 -0.14098,2.18866 0.65201,3.31369 1.07703,1.52799 1.51286,3.99468 1.07687,6.09481 -0.17005,0.81917 -0.48171,1.63258 -0.69256,1.80757 -0.33177,0.27534 -0.31499,0.42942 0.12466,1.14481 0.6364,1.03554 1.34888,3.75134 1.33748,5.09817 -0.005,0.56108 -0.23868,1.67498 -0.51983,2.47535 -0.50889,1.44865 -0.50873,1.46275 0.0366,3.12802 0.82541,2.52064 0.6354,5.07397 -0.51535,6.92512 l -0.86844,1.39703 0.52804,0.56207 c 1.70305,1.81282 2.20456,5.695 1.07491,8.32095 -0.71204,1.65516 -2.32078,3.12937 -3.86831,3.5448 -1.00194,0.26898 -1.11281,0.38545 -1.2634,1.32717 -0.24501,1.5322 -1.34282,3.50687 -2.39639,4.31047 -1.37325,1.04743 -2.66668,1.41564 -5.03148,1.43236 -1.80815,0.0128 -2.34384,0.13017 -3.6753,0.80536 -2.047859,1.03848 -4.005819,1.08185 -5.678259,0.12575 -1.37142,-0.78399 -1.36089,-0.78249 -1.36641,-0.19525 -0.005,0.48876 -0.49493,1.34692 -2.2776,3.98614 l -1.091321,1.6157 z m 1.796791,-2.96629 c 1.27496,-2.2912 1.5897,-4.88756 1.0346,-8.53452 -0.29285,-1.92397 -0.27621,-2.12466 0.26627,-3.21087 0.32563,-0.65202 0.7264,-2.24198 0.91656,-3.6363 l 0.33793,-2.47768 0.48347,1.41862 c 0.60993,1.78968 0.45201,3.40081 -0.46988,4.79388 l -0.69052,1.04344 0.42376,1.65409 c 0.2725,1.06367 0.36704,2.13675 0.26484,3.00628 -0.14498,1.23358 -0.0954,1.41164 0.56553,2.02992 1.92073,1.79687 4.29846,2.01164 6.429059,0.58071 1.60364,-1.07701 2.35534,-2.48345 2.36083,-4.41717 0.0117,-4.10467 -3.501299,-6.18539 -5.750329,-3.40591 -1.12161,1.38615 1.27569,3.88701 2.526769,2.63593 0.24694,-0.24694 0.3175,-0.22665 0.3175,0.0913 0,0.22483 -0.20836,0.59175 -0.463019,0.81537 -1.65775,1.4557 -4.04666,0.21221 -4.02935,-2.09737 0.003,-0.40741 0.30071,-1.74666 0.66146,-2.97611 0.36075,-1.22946 0.65591,-2.84345 0.65591,-3.58665 0,-3.232 -2.09558,-6.74569 -4.02316,-6.74569 -0.54711,0 -1.31788,0.26316 -1.8719,0.63913 l -0.941821,0.63914 -0.8663,-0.63914 c -1.385559,-1.02223 -2.483659,-0.87147 -3.8213684,0.52464 -2.0498202,2.13931 -2.6180202,5.65825 -1.4782602,9.15498 0.9808005,3.00904 0.64551,4.97327 -0.95263,5.58089 -0.92886,0.35315 -2.29414,-0.13635 -2.66783,-0.95652 -0.2757,-0.6051 -0.2604,-0.62909 0.21273,-0.33362 0.67254,0.42001 1.77364,0.0293 2.43983,-0.86566 0.65453,-0.87933 0.30606,-1.89154 -0.90551,-2.63023 -1.59184,-0.97054 -3.2726204,-0.44462 -4.1641804,1.30298 -1.14154994,2.23763 -0.92230997,4.5539 0.59457,6.28154 2.0529904,2.33822 5.0974504,2.55349 7.4968603,0.53011 0.8017997,-0.67615 0.8216997,-0.74605 0.7080797,-2.48749 -0.0767,-1.17526 0.0235,-2.24421 0.29108,-3.10662 0.38485,-1.24033 0.37946,-1.34527 -0.0952,-1.85209 -1.1533094,-1.23154 -1.4221694,-3.95513 -0.5753997,-5.82892 l 0.4782497,-1.05833 0.14543,2.29011 c 0.10602,1.66966 0.33011,2.69352 0.82711,3.77911 0.62653,1.36853 0.65898,1.61138 0.4011,3.00156 -0.15433,0.8319 -0.23572,2.70318 -0.18088,4.15839 0.087,2.30824 0.20814,2.87665 0.949549,4.45485 0.5122,1.09027 0.98248,1.76584 1.18368,1.70035 0.18361,-0.0598 0.622241,-0.62695 0.974741,-1.26042 z M 0.55618003,154.1304 c 0.0873,-0.14125 -0.0439,-0.64727 -0.29162997,-1.12448 -0.24769,-0.47722 -0.50574997,-1.72169 -0.57345997,-2.76548 -0.10285,-1.58548 -0.0261,-2.09831 0.46661997,-3.11605 C 1.03189,145.31857 2.26582,144.4823 3.9963704,144.52282 l 1.39253,0.0326 -0.49573,-1.30465 c -0.6329,-1.66566 -0.62405,-2.52225 0.0466,-4.51308 0.49129,-1.45837 0.50374,-1.65256 0.1323,-2.06301 -0.22553,-0.2492 -0.41005,-0.71963 -0.41005,-1.0454 0,-0.49099 -0.10184,-0.56164 -0.59532,-0.413 -2.3251204,0.70032 -4.78806028,6.4338 -3.90855034,9.09873 0.43009997,1.30323 0.0213,2.64583 -1.09034994,3.58125 -1.00124202,0.84249 -1.40252502,0.84118 -2.25108012,-0.007 -0.762056,-0.76206 -0.684229,-1.10387 0.149719,-0.65755 0.6494921,0.34759 1.4466761,0.0182 1.8699011,-0.77257 0.62861999,-1.1746 -1.080913,-2.67035 -2.4524521,-2.14577 -2.581164,0.98723 -3.10819,6.76752 -0.803672,8.81447 1.108112,0.98426 4.55777406,1.67956 4.97595403,1.00293 z M 29.855369,154.111 c 2.24096,-0.62238 3.47563,-2.40027 3.48466,-5.01782 0.0129,-3.742 -2.35248,-6.04267 -4.40248,-4.28202 -1.22383,1.05109 0.003,3.00965 1.52299,2.43169 0.71751,-0.2728 0.72548,-0.26564 0.34386,0.30911 -0.62489,0.94114 -1.14098,1.15886 -1.91306,0.80707 -1.38654,-0.63174 -2.19931,-3.03267 -1.43885,-4.25036 0.42812,-0.68552 -0.37789,-4.12954 -1.45207,-6.20456 -1.06598,-2.05921 -3.082139,-3.58442 -3.082139,-2.33161 0,0.27492 -0.22205,0.77408 -0.49345,1.10923 -0.48016,0.59299 -0.48032,0.63826 -0.006,1.68296 0.59883,1.31838 0.64833,3.77649 0.10238,5.08314 -0.5197,1.24382 -0.52076,1.24074 0.36598,1.06339 1.229279,-0.24585 2.547019,0.27559 3.576719,1.41535 0.52365,0.57962 0.95728,1.14281 0.96362,1.25153 0.006,0.10872 0.11457,0.73188 0.24051,1.38481 0.25781,1.33652 -0.033,3.61091 -0.6095,4.76648 -0.20893,0.41881 -0.31319,0.82816 -0.23169,0.90966 0.24004,0.24004 1.96572,0.16707 3.02833,-0.12805 z m -36.854486,-7.73454 c 0.629473,-1.90732 2.724015,-3.6309 4.4123751,-3.6309 0.629917,0 0.654187,-0.0483 1.062579,-2.11666 0.07184,-0.36381 0.421513,-1.22475 0.77707302,-1.91321 l 0.64645997,-1.25175 -0.71189997,-0.17868 c -0.39155002,-0.0983 -1.22665702,-0.041 -1.85580212,0.12727 -0.629145,0.16827 -1.512118,0.30595 -1.962161,0.30595 -0.67629,0 -0.784838,0.0803 -0.625625,0.46302 0.105949,0.25466 0.251047,1.00928 0.322437,1.67693 0.115258,1.07793 0.03633,1.32038 -0.704586,2.16423 -1.010311,1.15068 -2.060154,1.44125 -3.157365,0.87386 -1.11967,-0.57901 -1.29334,-0.97126 -0.346149,-0.78182 1.036539,0.2073 1.862354,-0.27859 2.315096,-1.36215 0.980202,-2.34595 -2.052001,-4.18011 -3.69078,-2.23253 -1.754062,2.08458 -0.898394,6.74248 1.508177,8.20989 1.204891,0.73468 1.67854,0.6514 2.010171,-0.35345 z m 43.431866,0.26541 c 2.43616,-1.64173 3.29389,-5.60304 1.72044,-7.94569 -0.4652,-0.69264 -0.7689,-0.86008 -1.68062,-0.92662 -0.89974,-0.0657 -1.24003,0.046 -1.7773,0.58329 -1.65832,1.65832 0.10116,4.55041 2.19929,3.61502 l 0.70809,-0.31568 -0.7276,0.73911 c -1.07163,1.08858 -2.62537,1.04471 -3.65092,-0.10307 -0.97811,-1.09469 -1.23154,-2.42231 -0.67526,-3.5374 0.23297,-0.46699 0.42357,-0.89031 0.42357,-0.94071 0,-0.0504 -0.41501,-0.0916 -0.92224,-0.0916 -0.50724,0 -1.437,-0.13768 -2.06615,-0.30595 -0.62914,-0.16827 -1.46979,-0.22415 -1.86812,-0.12418 l -0.72422,0.18177 0.53167,0.74666 c 0.29242,0.41066 0.75582,1.56491 1.02978,2.565 0.48059,1.75439 0.53241,1.82547 1.47354,2.021 0.5365,0.11147 1.30682,0.37404 1.71185,0.58348 0.84556,0.43726 2.04043,2.06237 2.30107,3.12962 0.21915,0.89738 0.79449,0.93375 1.99313,0.12599 z M -4.260282,135.70466 c 0.08894,-0.089 -0.174644,-0.44475 -0.585753,-0.79068 -1.485548,-1.25 -2.000102,-3.40931 -1.243777,-5.21945 0.426119,-1.01984 2.512435,-2.93156 3.6210821,-3.31804 l 0.780759,-0.27217 0.004,1.24301 c 0.0047,1.45686 0.272741,1.99195 0.93373102,1.86435 0.33634997,-0.0649 0.57150997,-0.50963 0.79550994,-1.50433 0.1749,-0.77668 0.58481997,-1.77305 0.91092997,-2.21414 0.62457997,-0.84478 0.61963997,-0.85748 -0.60636997,-1.55803 -0.26162,-0.1495 -0.59375997,-0.58239 -0.73807997,-0.96198 l -0.26240997,-0.69017 -1.14368202,1.12244 -1.1436881,1.12244 -0.44369,-1.10889 c -1.258425,-3.14511 -1.52885,-7.0246 -0.818283,-11.73897 0.440217,-2.92069 0.504659,-4.47752 0.179832,-4.34458 -4.358421,1.78386 -4.593657,1.92049 -5.13568,2.98294 -0.641099,1.25666 -0.960087,4.2105 -0.486317,4.5033 0.173016,0.10693 0.515431,0.0185 0.760923,-0.19647 0.526868,-0.4614 1.766431,-1.09875 2.695306,-1.38586 0.528643,-0.1634 0.342702,0.13677 -0.926041,1.49491 -2.13217,2.28241 -3.337058,4.58315 -3.497855,6.67918 -0.06838,0.89134 0.0086,1.96242 0.171014,2.38018 l 0.295339,0.75957 0.776991,-1.07261 c 0.672127,-0.92784 2.706371,-2.4309 3.289984,-2.4309 0.107379,0 -0.474721,0.80367 -1.293553,1.78594 -2.158546,2.58938 -3.407292,5.242 -3.535451,7.51009 -0.05621,0.99486 -0.02937,2.09903 0.05965,2.45372 0.228875,0.91191 1.446603,2.28042 2.397852,2.69475 0.814905,0.35496 3.888707,0.50942 4.187681,0.21045 z m 12.2373324,-0.37599 c 1.3163402,-1.45454 3.1536796,-2.12101 5.8740086,-2.13071 2.204351,-0.008 3.932571,0.61991 5.270421,1.91445 0.61127,0.59148 0.9811,0.75956 1.3875,0.63058 0.86939,-0.27594 1.35096,-0.90385 1.35096,-1.7615 0,-0.70985 -0.1679,-0.86732 -1.67853,-1.57423 -3.54575,-1.65926 -7.197801,-1.91295 -11.0448494,-0.76725 -3.2962702,0.98167 -4.3714802,2.23681 -3.0490102,3.55927 0.80765,0.80765 1.24836,0.83783 1.8895,0.12939 z m 28.1804786,-0.0576 c 3.68523,-1.85835 2.92807,-7.60408 -1.6849,-12.78584 -0.73474,-0.82535 -1.11711,-1.43551 -0.89959,-1.43551 0.55439,0 2.41356,1.4142 3.26963,2.48707 0.93541,1.17232 1.14752,0.88505 1.1526,-1.56103 0.005,-2.5195 -0.97553,-4.58134 -3.34827,-7.03907 -0.96875,-1.00346 -1.69728,-1.82447 -1.61894,-1.82447 0.45037,0 2.47715,0.86561 3.1521,1.34621 0.43532,0.30998 0.87394,0.48093 0.97471,0.37989 0.43478,-0.43597 0.13927,-2.98049 -0.49127,-4.23009 -0.60328,-1.19558 -0.81894,-1.36383 -3.09584,-2.41535 -2.84204,-1.31249 -2.68379,-1.50697 -2.01383,2.47479 0.23846,1.41726 0.4411,4.00559 0.45031,5.75184 0.0167,3.16022 -0.27351,4.76212 -1.31632,7.26653 l -0.38163,0.91652 -1.06305,-1.18111 c -0.79764,-0.88622 -1.10198,-1.08202 -1.21899,-0.78423 -0.0858,0.21828 -0.61697,0.82702 -1.18045,1.35276 -0.91016,0.84919 -0.97774,0.9947 -0.60549,1.30365 0.60883,0.50528 1.08883,1.54985 1.30215,2.83369 0.14481,0.87156 0.30209,1.12448 0.69929,1.12448 0.64959,0 1.11817,-1.16113 0.93426,-2.3151 -0.0754,-0.47294 -0.0552,-0.85878 0.0448,-0.85742 0.1,0.001 0.80858,0.36194 1.57464,0.80127 1.62987,0.93471 2.85837,2.49851 3.10374,3.95087 0.20683,1.22422 -0.47347,2.96635 -1.54207,3.94895 -0.37908,0.34857 -0.62635,0.73553 -0.54949,0.85989 0.29638,0.47956 3.14866,0.23759 4.35194,-0.36919 z M 1.62405,134.35777 c 0.57948,-0.39317 1.53039,-1.07827 2.1131204,-1.52244 1.02143,-0.77855 2.3236,-1.28581 5.4298802,-2.1152 1.6838394,-0.4496 3.4520384,-1.82382 4.2221184,-3.28138 0.28044,-0.53079 0.51515,-0.77458 0.52158,-0.54175 0.0221,0.80062 1.509681,2.48815 2.810221,3.188 0.71638,0.38551 2.01689,0.84577 2.89002,1.02282 1.85956,0.37706 3.29312,1.05069 4.762499,2.23787 2.24294,1.8122 3.61901,2.1145 5.57704,1.22521 1.40608,-0.63861 2.22816,-1.7006 2.22816,-2.8784 0,-1.0887 -0.96913,-3.16809 -1.64516,-3.52989 -0.39537,-0.2116 -0.4715,-0.14267 -0.4715,0.42692 0,0.3736 -0.17252,1.09216 -0.38338,1.59681 -0.31234,0.74754 -0.52535,0.91755 -1.14962,0.91755 -0.92105,0 -1.40179,-0.51772 -2.00826,-2.16275 -0.98272,-2.66559 -3.08139,-4.67627 -5.482049,-5.25218 -1.93025,-0.46306 -3.23941,-0.211 -4.41353,0.84974 -2.11435,1.91019 -3.898871,1.91183 -5.80535,0.005 -0.9476697,-0.94767 -1.0436497,-0.98054 -2.8416996,-0.97294 -1.37591,0.006 -2.13843,0.15443 -2.92575,0.57027 -1.62724,0.85944 -3.4023304,2.92132 -4.06945037,4.72692 -0.62925997,1.70314 -1.11631994,2.23559 -2.04501993,2.23559 -0.798476,0 -1.419641,-0.95191 -1.419641,-2.17554 0,-1.22539 -0.3039301,-1.26224 -1.1511791,-0.13957 -1.727488,2.28906 -1.301017,4.73772 1.007798,5.78646 1.5654921,0.71111 2.98785206,0.63831 4.249152,-0.21747 z m 13.19614,-9.89348 c 0.38748,-0.3048 0.94174,-1.01917 1.23168,-1.5875 0.39886,-0.78183 0.68684,-1.03332 1.18324,-1.03332 0.38408,0 0.65608,0.15265 0.65608,0.36819 0,0.58317 1.28699,0.77454 2.0124,0.29924 0.91812,-0.60158 0.81965,-1.59247 -0.26615,-2.67826 -0.99573,-0.99573 -1.63971,-1.10509 -2.84312,-0.48278 l -0.80601,0.4168 0.22384,-0.87983 c 0.12311,-0.4839 0.22384,-1.91299 0.22384,-3.17576 0,-1.91677 -0.0914,-2.4183 -0.55331,-3.0368 -1.09403,-1.46486 -3.82218,-1.29464 -4.47991,0.27952 -0.73736,1.76475 -0.73686,4.53955 10e-4,6.308 0.17928,0.4296 0.12797,0.43411 -0.75269,0.0661 -0.51974,-0.21719 -1.1709197,-0.39489 -1.4470094,-0.39489 -0.7752297,0 -1.8252802,0.9676 -2.1640702,1.99413 -0.27851,0.8439 -0.25042,0.97394 0.31158,1.44227 0.83595,0.69664 1.4042705,0.65965 2.1454099,-0.13963 l 0.6230997,-0.67199 0.68079,0.53551 c 0.37444,0.29453 0.7569,0.83874 0.84992,1.20936 0.15931,0.63475 1.523159,1.71261 2.169759,1.71478 0.16228,5.3e-4 0.612081,-0.24839 0.999571,-0.55319 z m -9.7702596,-3.0667 c 0.58951,-0.28112 0.93501,-0.63308 0.93501,-0.9525 0,-0.67721 1.6584,-2.30579 2.348,-2.30579 0.5958505,0 1.3561699,-1.17932 1.3561699,-2.10353 0,-0.70243 -0.0932,-0.68956 -1.7411999,0.24054 -1.26069,0.71149 -1.41939,0.74382 -1.74119,0.35477 -0.19474,-0.23544 -0.94938,-0.70562 -1.67698,-1.04484 l -1.3229204,-0.61677 1.3229204,-0.007 c 1.95431,-0.01 2.25602,-0.35207 0.80038,-0.90798 -1.10882,-0.42346 -3.8430904,-2.72904 -3.8430904,-3.24056 0,-0.11858 0.50601,-0.22144 1.12448,-0.22856 1.5222604,-0.0175 3.7250004,-0.38513 3.5223104,-0.58783 -0.0903,-0.0903 -0.98909,-0.18388 -1.99728,-0.20794 -2.1742104,-0.0519 -3.26745037,-0.44705 -3.66785034,-1.32583 -0.34328,-0.75342 -0.30866,-0.75949 1.39111994,-0.24384 1.26026,0.38231 3.8605504,0.54688 3.8605504,0.24433 0,-0.0823 -0.12325,-0.37999 -0.27389,-0.66146 -0.36439,-0.68088 0.0643,-0.65282 0.6959,0.0456 1.33582,1.47706 4.6125496,2.10212 5.7472096,1.09632 0.509239,-0.4514 0.517849,-0.44311 0.34324,0.33073 -0.37102,1.64425 -0.42833,1.5817 1.526839,1.66655 l 1.821591,0.079 -0.14942,-0.7405 c -0.0822,-0.40728 -0.23825,-0.9703 -0.34682,-1.25116 -0.18904,-0.48902 -0.17052,-0.49182 0.43722,-0.0661 1.42983,1.0015 4.28402,0.3688 6.17357,-1.36852 0.67509,-0.6207 0.72784,-0.63466 0.46302,-0.12259 -0.16438,0.31785 -0.29888,0.70481 -0.29888,0.85989 0,0.39994 2.005299,0.34959 3.712299,-0.0932 1.58637,-0.4115 1.83365,-0.35521 1.41332,0.32173 -0.48051,0.77383 -1.64662,1.15497 -3.759829,1.22888 -2.2077,0.0772 -3.21666,0.45742 -4.2762,1.61133 l -0.66146,0.72037 0.92604,-0.14852 c 1.11418,-0.17869 5.173799,0.97605 5.926919,1.68588 0.48691,0.45892 0.47003,0.46641 -0.52917,0.23463 -1.344529,-0.31188 -5.662329,-0.32205 -5.662329,-0.0133 0,0.37038 1.54969,0.82921 3.39445,1.00505 l 1.674659,0.15962 -1.145499,0.56411 c -0.63002,0.31026 -1.39906,0.72858 -1.70899,0.9296 -0.50124,0.3251 -0.69648,0.28756 -1.76691,-0.33975 -1.37974,-0.80858 -1.77063,-0.87376 -1.77063,-0.29523 0,0.91416 0.83079,1.96286 1.94569,2.45603 0.88626,0.39204 1.28251,0.78094 1.72318,1.69126 0.63422,1.31011 1.4147,1.7927 2.899289,1.7927 1.16622,0 2.01293,-0.52966 2.57057,-1.60801 0.34476,-0.66669 0.48202,-0.74062 0.93,-0.50087 0.64551,0.34547 0.99119,0.15198 1.35968,-0.76109 0.38456,-0.9529 0.98961,-3.48003 0.8332,-3.48003 -0.0693,0 -0.5381,0.31426 -1.04167,0.69835 -0.50358,0.3841 -0.97989,0.63406 -1.05847,0.55548 -0.0786,-0.0786 0.17322,-0.76668 0.55957,-1.5291 0.80604,-1.59064 1.13107,-4.45739 0.71051,-6.26664 -0.24731,-1.06394 -0.23479,-1.10453 0.25919,-0.84016 0.46499,0.24885 0.51013,0.2 0.43343,-0.4691 -0.0711,-0.61984 -0.36191,-0.88434 -1.70989,-1.55501 -2.09527,-1.04247 -3.82138,-1.43398 -7.182559,-1.62912 l -2.72141,-0.158 -2.20206,2.27769 -2.202071,2.27768 -2.277599,-2.2776 -2.2775994,-2.2776 -2.9601202,0.17979 c -4.5168604,0.27433 -8.2042463,1.66432 -8.4984923,3.20356 -0.139869,0.73168 0.04491,0.84358 0.553678,0.3353 0.26498,-0.26473 0.288744,-0.0931 0.119062,0.8599 -0.440756,2.47557 -0.212441,4.39823 0.75333202,6.34387 0.78300997,1.57745 0.83033994,1.77744 0.36420997,1.53874 -0.29467997,-0.15089 -0.86319999,-0.57974 -1.26337699,-0.95299 -0.645594,-0.60214 -0.727604,-0.62282 -0.727604,-0.18346 0,0.79715 0.796671,3.39437 1.215571,3.96286 0.31326002,0.42513 0.47541002,0.46614 0.86960999,0.21996 0.41527997,-0.25935 0.62428997,-0.13547 1.46181991,0.86649 0.85015,1.01705 1.11202,1.16911 2.01344,1.16911 0.5699004,0 1.4569504,-0.20065 1.9712104,-0.44588 z m 4.2244602,-8.29916 c 0.2012597,-0.20494 0.0655,-0.47548 -0.4722997,-0.9413 -0.6828005,-0.5914 -0.9475705,-0.64638 -2.7781205,-0.57691 -2.12973,0.0808 -2.37662,0.28513 -1.3084,1.08268 1.52409,1.13789 3.66797,1.34271 4.5588202,0.43553 z M -4.519024,104.75085 c 2.3584091,-0.80215 7.388184,-1.86364 9.9748044,-2.1051 1.0914,-0.10188 2.06972,-0.23397 2.17404,-0.29354 0.10431,-0.0596 -0.353,-0.86263 -1.01625,-1.7846 l -1.20591,-1.676306 -0.96813,0.23926 c -3.52941037,0.872266 -8.8317764,1.810826 -10.2302204,1.810826 -1.494087,0 -1.672029,0.0583 -1.815934,0.59531 -0.205001,0.76495 -0.205994,3.06784 -0.0016,3.83014 0.133352,0.49747 0.240702,0.54466 0.690927,0.30371 0.293175,-0.1569 1.372421,-0.57077 2.398327,-0.9197 z m 21.665454,-3.18927 2.56252,-3.142426 -0.7942,-1.65474 c -1.10909,-2.31083 -2.06142,-5.213165 -2.25723,-6.879209 -0.19206,-1.634111 -0.0935,-1.808342 2.92311,-5.167202 2.10439,-2.343143 2.11197,-2.542966 0.13462,-3.546191 -2.70363,-1.371704 -6.398731,-1.760814 -9.37524,-0.987251 -1.6145991,0.419618 -4.1253796,1.67923 -4.2816396,2.148022 -0.048,0.143912 0.98745,1.476672 2.30093,2.96169 l 2.3881396,2.700032 v 1.454809 c 0,1.579025 -0.5764,3.524525 -2.0530391,6.92951 l -0.9471705,2.18411 0.52837,0.59402 c 0.2906005,0.3267 1.6420699,1.943636 3.0032696,3.593176 2.376829,2.88035 2.491339,2.97847 2.889959,2.47663 0.228291,-0.28741 1.568211,-1.93665 2.977601,-3.66498 z m -5.11606,-1.20625 -1.4952,-1.900676 1.4554,-1.86549 c 0.800469,-1.02601 1.547809,-1.90024 1.660769,-1.94272 0.17553,-0.066 2.416811,2.59913 3.010661,3.58001 0.1856,0.30658 -2.563931,4.043626 -2.967801,4.033706 -0.0928,-0.002 -0.84147,-0.85945 -1.663829,-1.90483 z M 15.238,98.476344 c 0.004,-0.11885 -0.30576,-0.62662 -0.68846,-1.12836 -0.762031,-0.99907 -0.973181,-0.95343 -1.952661,0.42212 l -0.507109,0.71218 0.813019,1.10553 0.81302,1.105536 0.757411,-1.000456 c 0.41658,-0.55026 0.76073,-1.0977 0.76478,-1.21655 z m 20.000369,6.015996 c 0.0999,-0.66635 0.0773,-1.70815 -0.0503,-2.3151 l -0.23201,-1.10356 -2.24856,-0.16566 c -2.42539,-0.17869 -5.59958,-0.74112 -8.67833,-1.537696 l -1.931839,-0.49984 -1.17701,1.617556 c -0.64736,0.88965 -1.17701,1.69637 -1.17701,1.79271 0,0.0963 0.92273,0.25873 2.05052,0.36088 3.747759,0.33948 10.405649,1.89865 11.942489,2.79676 0.93703,0.54759 1.31367,0.31037 1.50208,-0.94605 z M -3.194234,97.445194 c -0.492286,-0.84291 -0.5296,-0.85525 -4.257688,-1.40803 -2.068577,-0.30672 -3.76105,-0.52497 -3.76105,-0.48501 0,0.04 0.135559,0.37019 0.301244,0.73383 0.539533,1.18414 2.945387,1.91245 6.536132,1.97864 l 1.678001,0.0309 z m 5.022114,0.35311 c 1.13335,-0.27123 2.1194504,-0.55194 2.1913304,-0.62381 0.0719,-0.0719 -1.5553304,-3.18611 -3.61600034,-6.920495 C -3.492959,83.193266 -4.81383,81.407454 -6.550859,80.852117 -7.922097,80.413727 -24.49946,75.498 -25.576119,75.21051 c -0.55093,-0.147109 -1.06495,-0.204211 -1.142268,-0.126893 -0.272646,0.272646 1.184824,2.718732 2.187243,3.670873 1.666602,1.583009 4.61856,2.813784 10.742341,4.478857 3.573881,0.971748 5.285538,1.861368 6.380344,3.316134 0.454134,0.603445 2.016321,3.492466 3.471529,6.420048 2.1204901,4.265985 2.7509001,5.322775 3.17500012,5.322385 0.29103997,-2.7e-4 1.45645991,-0.22239 2.58980988,-0.49361 z m 29.308929,-4.33139 c 4.41662,-8.795486 4.23897,-8.626962 11.09605,-10.525908 6.21541,-1.721246 9.04982,-3.060868 10.53533,-4.97929 0.84618,-1.092782 1.52504,-2.618977 1.2758,-2.86822 -0.16656,-0.166558 -7.66289,1.984297 -18.20419,5.223166 -3.82594,1.17554 -4.19147,1.587668 -8.78881,9.909107 -2.09029,3.783535 -3.759569,6.925405 -3.70951,6.981925 0.1642,0.18542 3.92575,1.04845 4.65654,1.06838 0.66573,0.0182 0.87836,-0.30762 3.13879,-4.80916 z m 5.12766,4.27115 c 1.1042,-0.30618 2.82383,-1.85771 2.26532,-2.04388 -0.17482,-0.0583 -1.92237,0.10962 -3.88344,0.3731 -3.41509,0.45883 -3.58151,0.50983 -3.94267,1.20823 -0.20739,0.40105 -0.37707,0.8122 -0.37707,0.91366 0,0.25629 4.66479,-0.0981 5.93786,-0.45111 z M 7.4023004,94.525244 c 0.699,-0.92396 1.0794305,-2.144935 1.3678505,-4.390081 0.1735697,-1.351086 0.14237,-1.454466 -0.7064905,-2.340363 -1.29591,-1.352449 -3.00065,-2.46382 -3.77927,-2.46382 -0.64025,0 -2.7973604,1.636679 -2.7973604,2.122459 0,0.374288 4.7962904,7.931695 5.0338304,7.931695 0.127,0 0.52365,-0.38695 0.88144,-0.85989 z M 23.414099,91.780429 c 1.21859,-1.980259 2.27329,-3.821027 2.34379,-4.090592 0.16225,-0.620442 -1.17419,-1.998228 -2.18413,-2.251707 -0.886099,-0.222396 -2.044749,0.344796 -3.724159,1.82307 -1.09754,0.966088 -1.16466,1.10497 -1.16466,2.409869 0,1.85483 0.68661,4.094315 1.52881,4.986465 0.37777,0.40018 0.75388,0.72665 0.8358,0.72549 0.0819,-0.001 1.14596,-1.62233 2.364549,-3.602595 z m -27.747904,3.188025 c 0,-0.0837 -0.529076,-0.96998 -1.175723,-1.969595 -1.035262,-1.60035 -1.296041,-1.83824 -2.182813,-1.99129 -1.74659,-0.30143 -6.704547,-1.425403 -8.049763,-1.82489 -1.47746,-0.438758 -1.581453,-0.294842 -0.923983,1.2787 0.949126,2.27158 3.005461,3.147815 10.215616,4.353065 1.910786,0.3194 2.116666,0.33438 2.116666,0.15401 z m 39.410314,-0.38264 c 4.90776,-0.67773 7.78623,-1.847885 8.77337,-3.566555 0.60622,-1.055467 0.74888,-2.141218 0.26794,-2.039167 -0.2002,0.04248 -1.50989,0.364631 -2.91042,0.71589 -1.40053,0.351258 -3.58111,0.839727 -4.84575,1.085487 -2.28789,0.44461 -2.3031,0.4529 -3.05809,1.66536 -0.41731,0.67019 -0.98343,1.560505 -1.25803,1.978485 l -0.49927,0.75997 0.77924,-0.16359 c 0.42858,-0.09 1.66654,-0.28612 2.75101,-0.43588 z m -42.585314,-4.90825 c 0,-0.397746 -1.394048,-2.459407 -2.170599,-3.210105 -0.719098,-0.695158 -1.597854,-1.053052 -5.008611,-2.039881 -2.275076,-0.658243 -4.750031,-1.438637 -5.499899,-1.734207 -0.749869,-0.295571 -1.471358,-0.537401 -1.603308,-0.537401 -0.294838,0 0.679666,2.254057 1.390426,3.216098 0.859581,1.163476 2.761955,1.981702 6.938866,2.984459 2.182812,0.52403 4.325938,1.057533 4.7625,1.18556 1.023676,0.300207 1.190625,0.319203 1.190625,0.135477 z m 51.906874,-2.234187 c 0.97258,-0.291194 2.12336,-0.828179 2.55728,-1.193299 0.8164,-0.686954 1.94279,-2.430538 2.28532,-3.537532 0.21852,-0.706212 0.22593,-0.706653 -1.98073,0.117767 -0.65484,0.244653 -2.95978,0.961733 -5.12208,1.59351 -2.16231,0.631777 -4.21378,1.333667 -4.55884,1.559756 -0.67219,0.440437 -2.48991,2.979 -2.48991,3.47732 0,0.303854 5.63363,-0.917119 9.30896,-2.017522 z"
       id="path179" /></g></svg>
